<?xml version="1.0" encoding="utf-8"?>
<!-- Generator: Adobe Illustrator 18.0.0, SVG Export Plug-In . SVG Version: 6.00 Build 0)  -->
<!DOCTYPE svg PUBLIC "-//W3C//DTD SVG 1.1//EN" "http://www.w3.org/Graphics/SVG/1.1/DTD/svg11.dtd">
<svg version="1.1" id="Layer_1" xmlns="http://www.w3.org/2000/svg" xmlns:xlink="http://www.w3.org/1999/xlink" x="0px" y="0px"
	 viewBox="0 0 849.1 832.9" enable-background="new 0 0 849.1 832.9" xml:space="preserve">
<g fill="#20be86">
	<polygon points="122.9,401.8 52.4,279.8 122.9,157.7 263.8,157.7 334.3,279.8 263.8,401.8 	"/>
	<polygon points="353.5,268.1 283,146 353.5,24 494.4,24 564.9,146 494.4,268.1 	"/>
	<polygon points="585.3,401.8 514.8,279.8 585.3,157.7 726.2,157.7 796.7,279.8 726.2,401.8 	"/>
	<polygon points="122.9,670.5 52.4,548.5 122.9,426.4 263.8,426.4 334.3,548.5 263.8,670.5 	"/>
	<polygon points="353.5,537.9 283,415.9 353.5,293.8 494.4,293.8 564.9,415.9 494.4,537.9 	"/>
	<polygon points="585.3,670.5 514.8,548.5 585.3,426.4 726.2,426.4 796.7,548.5 726.2,670.5 	"/>
	<polygon points="353.5,808.9 283,686.8 353.5,564.8 494.4,564.8 564.9,686.8 494.4,808.9 	"/>
</g>
</svg>
